<mxfile host="app.diagrams.net" modified="2023-07-13T05:18:06.320Z" agent="Mozilla/5.0 (X11; Linux x86_64) AppleWebKit/537.36 (KHTML, like Gecko) Chrome/114.0.0.0 Safari/537.36 Edg/114.0.1823.67" version="21.6.2" etag="cn_NJGfi4-k97spF-SXI" type="github">
  <diagram name="Page-1" id="T2lO29RfLME6-V_VKmgU">
    <mxGraphModel>
      <root>
        <mxCell id="0" />
        <mxCell id="1" parent="0" />
      </root>
    </mxGraphModel>
  </diagram>
</mxfile>
